<svg width="70" height="70" viewBox="0 0 70 70" fill="none" xmlns="http://www.w3.org/2000/svg">
<path d="M32.5347 2.04234C34.248 1.05319 36.3588 1.05319 38.0721 2.04234L62.4954 16.1432C64.2087 17.1323 65.2641 18.9603 65.2641 20.9386V49.1403C65.2641 51.1186 64.2087 52.9466 62.4954 53.9358L38.0721 68.0366C36.3588 69.0258 34.248 69.0258 32.5347 68.0366L8.11137 53.9358C6.39811 52.9466 5.3427 51.1186 5.3427 49.1403V20.9386C5.3427 18.9604 6.39811 17.1323 8.11136 16.1432L32.5347 2.04234Z" stroke="url(#paint0_linear_663_91)" stroke-opacity="0.3" stroke-width="1.10747"/>
<path d="M33.3764 12.073C34.5689 11.3846 36.038 11.3846 37.2304 12.073L54.2291 21.8872C55.4215 22.5756 56.1561 23.8479 56.1561 25.2248V44.8532C56.1561 46.2301 55.4215 47.5024 54.2291 48.1908L37.2304 58.005C36.038 58.6935 34.5689 58.6935 33.3764 58.005L16.3778 48.1908C15.1853 47.5024 14.4508 46.2301 14.4508 44.8532V25.2248C14.4508 23.8479 15.1853 22.5756 16.3778 21.8872L33.3764 12.073Z" fill="url(#paint1_linear_663_91)" fill-opacity="0.2"/>
<g clip-path="url(#clip0_663_91)">
<path d="M23.9216 22.0312H46.6856L44.172 45.4056L35.2807 48.0472L26.4379 45.4042L23.9216 22.0312ZM42.1075 26.8143L28.5011 26.8114L28.7205 29.6526L39.1738 29.6556L38.9114 32.6003H32.0554L32.3039 35.3891H38.6864L38.3088 39.2085L35.3043 40.0803L32.254 39.2012L32.0582 36.9139H29.3647L29.6646 41.0935L35.3043 42.9376L40.851 41.2801L42.1075 26.8143Z" fill="#42A5F5"/>
</g>
<defs>
<linearGradient id="paint0_linear_663_91" x1="0.707764" y1="0.443848" x2="69.899" y2="69.6351" gradientUnits="userSpaceOnUse">
<stop stop-color="white"/>
<stop offset="0.765625" stop-color="white" stop-opacity="0"/>
</linearGradient>
<linearGradient id="paint1_linear_663_91" x1="11.2249" y1="10.9604" x2="59.382" y2="59.1176" gradientUnits="userSpaceOnUse">
<stop stop-color="white"/>
<stop offset="0.828125" stop-color="white" stop-opacity="0"/>
</linearGradient>
<clipPath id="clip0_663_91">
<rect width="26.0159" height="26.0159" fill="white" transform="translate(22.2957 22.0312)"/>
</clipPath>
</defs>
</svg>
