<svg width="70" height="70" viewBox="0 0 70 70" fill="none" xmlns="http://www.w3.org/2000/svg">
<path d="M32.1197 2.04234C33.8329 1.05319 35.9438 1.05319 37.657 2.04234L62.0804 16.1432C63.7936 17.1323 64.8491 18.9603 64.8491 20.9386V49.1403C64.8491 51.1186 63.7937 52.9466 62.0804 53.9358L37.657 68.0366C35.9438 69.0258 33.833 69.0258 32.1197 68.0366L7.69633 53.9358C5.98307 52.9466 4.92766 51.1186 4.92766 49.1403V20.9386C4.92766 18.9604 5.98307 17.1323 7.69632 16.1432L32.1197 2.04234Z" stroke="url(#paint0_linear_663_88)" stroke-opacity="0.3" stroke-width="1.10747"/>
<path d="M32.9614 12.073C34.1538 11.3846 35.6229 11.3846 36.8154 12.073L53.814 21.8872C55.0065 22.5756 55.741 23.8479 55.741 25.2248V44.8532C55.741 46.2301 55.0065 47.5024 53.814 48.1908L36.8154 58.005C35.6229 58.6935 34.1538 58.6935 32.9614 58.005L15.9627 48.1908C14.7703 47.5024 14.0357 46.2301 14.0357 44.8532V25.2248C14.0357 23.8479 14.7703 22.5756 15.9627 21.8872L32.9614 12.073Z" fill="url(#paint1_linear_663_88)" fill-opacity="0.2"/>
<g clip-path="url(#clip0_663_88)">
<path d="M23.4189 22.0312L25.5067 45.4456L34.8757 48.0472L44.2691 45.4423L46.3601 22.0312H23.4206H23.4189ZM41.8155 29.6897H30.827L31.0888 32.6311H41.5553L40.7667 41.4473L34.8757 43.0798L28.9929 41.4473L28.5912 36.9367H31.4741L31.679 39.2294L34.8773 40.0912L34.8838 40.0896L38.0838 39.2261L38.4155 35.5026H28.4628L27.6888 26.8182H42.074L41.8171 29.6897H41.8155Z" fill="#E44D26"/>
</g>
<defs>
<linearGradient id="paint0_linear_663_88" x1="0.292725" y1="0.443848" x2="69.484" y2="69.6351" gradientUnits="userSpaceOnUse">
<stop stop-color="white"/>
<stop offset="0.765625" stop-color="white" stop-opacity="0"/>
</linearGradient>
<linearGradient id="paint1_linear_663_88" x1="10.8098" y1="10.9604" x2="58.9669" y2="59.1176" gradientUnits="userSpaceOnUse">
<stop stop-color="white"/>
<stop offset="0.828125" stop-color="white" stop-opacity="0"/>
</linearGradient>
<clipPath id="clip0_663_88">
<rect width="26.0159" height="26.0159" fill="white" transform="translate(21.8806 22.0312)"/>
</clipPath>
</defs>
</svg>
