<svg width="70" height="70" viewBox="0 0 70 70" fill="none" xmlns="http://www.w3.org/2000/svg">
<path d="M31.95 2.04234C33.6633 1.05319 35.7741 1.05319 37.4873 2.04234L61.9107 16.1432C63.624 17.1323 64.6794 18.9603 64.6794 20.9386V49.1403C64.6794 51.1186 63.624 52.9466 61.9107 53.9358L37.4874 68.0366C35.7741 69.0258 33.6633 69.0258 31.95 68.0366L7.52665 53.9358C5.8134 52.9466 4.75798 51.1186 4.75798 49.1403V20.9386C4.75798 18.9604 5.81339 17.1323 7.52665 16.1432L31.95 2.04234Z" stroke="url(#paint0_linear_663_94)" stroke-opacity="0.3" stroke-width="1.10747"/>
<path d="M32.7917 12.073C33.9841 11.3846 35.4533 11.3846 36.6457 12.073L53.6444 21.8872C54.8368 22.5756 55.5713 23.8479 55.5713 25.2248V44.8532C55.5713 46.2301 54.8368 47.5024 53.6444 48.1908L36.6457 58.005C35.4533 58.6935 33.9841 58.6935 32.7917 58.005L15.793 48.1908C14.6006 47.5024 13.8661 46.2301 13.8661 44.8532V25.2248C13.8661 23.8479 14.6006 22.5756 15.793 21.8872L32.7917 12.073Z" fill="url(#paint1_linear_663_94)" fill-opacity="0.2"/>
<path d="M36.0497 39.2767V37.158H39.2278V38.2173H43.4653V36.0986H38.1684C37.0032 36.0986 36.0497 35.1452 36.0497 33.9799V30.8018C36.0497 29.6365 37.0032 28.6831 38.1684 28.6831H44.5246C45.6899 28.6831 46.6433 29.6365 46.6433 30.8018V32.9205H43.4653V31.8612H39.2278V33.9799H44.5246C45.6899 33.9799 46.6433 34.9333 46.6433 36.0986V39.2767C46.6433 40.442 45.6899 41.3954 44.5246 41.3954H38.1684C37.0032 41.3954 36.0497 40.442 36.0497 39.2767ZM29.6936 28.6831V38.2173H26.5155V36.0986H23.3374V38.2173C23.3374 39.9759 24.7569 41.3954 26.5155 41.3954H29.6936C31.4521 41.3954 32.8716 39.9759 32.8716 38.2173V28.6831H29.6936Z" fill="#FEE736"/>
<defs>
<linearGradient id="paint0_linear_663_94" x1="0.123047" y1="0.443848" x2="69.3143" y2="69.6351" gradientUnits="userSpaceOnUse">
<stop stop-color="white"/>
<stop offset="0.765625" stop-color="white" stop-opacity="0"/>
</linearGradient>
<linearGradient id="paint1_linear_663_94" x1="10.6401" y1="10.9604" x2="58.7973" y2="59.1176" gradientUnits="userSpaceOnUse">
<stop stop-color="white"/>
<stop offset="0.828125" stop-color="white" stop-opacity="0"/>
</linearGradient>
</defs>
</svg>
